<svg xmlns="http://www.w3.org/2000/svg" width="357" height="208" viewBox="0 0 649.09 378.18"><path d="M633.358 206.44c-8.448 10.23-90.222 170.214-310.266 170.214-208.032 0-299.97-161.832-308.418-172.128L.88 187.96l13.86-16.83C23.188 160.9 116.71.586 324.544.586c208.56.462 301.356 162.096 309.804 172.392l13.332 16.764-14.322 16.698zM324.28 54.046c-152.922 0-204.006 80.85-252.384 134.112 48.18 53.526 99.99 134.772 252.384 135.036l-1.386.264c165.066 0 204.402-80.52 252.714-133.782-48.18-53.46-98.934-135.3-251.328-135.63zm-.462 242.484c-28.842 0-55.242-12.342-75.636-32.538-20.328-20.196-31.482-47.85-31.416-76.362.132-58.674 48.51-106.854 107.91-106.854 59.73.132 107.448 48.708 107.316 107.58-.066 58.674-52.14 108.174-108.174 108.174zm27.456-161.7c-14.916 0-27.06 12.078-27.126 26.862 0 7.194 2.772 13.992 7.854 19.074 5.082 5.082 11.616 7.854 18.81 7.854 14.322 0 27.126-12.078 27.192-26.862.066-14.784-11.814-26.862-26.73-26.928z"/></svg>